<?xml version="1.0" encoding="UTF-8"?>
<svg id="Layer_1" data-name="Layer 1" xmlns="http://www.w3.org/2000/svg" viewBox="0 1100 4558.48 1500">
  <defs>
    <style>
      .cls-1 {
        fill: #85e85c;
        stroke-width: 0px;
      }
    </style>
  </defs>
  <path class="cls-1" d="m1089.48,2421.72c761.82-179.87,1552.78-179.88,2314.6,0-11.32,47.16-22.65,94.32-33.97,141.49-739.56-174.53-1507.1-174.53-2246.66,0-11.33-47.16-22.65-94.32-33.97-141.49Z"/>
  <path class="cls-1" d="m356.31,1297.64c-.4,97.66-.83,195.32-1.25,292.98-.27,67.36-.56,134.72-.85,202.08.17,21.88,4.66,43.19,9.13,64.49-38.79-88.55-76.86-177.4-114.2-266.57-40.78-97.29-80.71-194.95-119.87-292.92-43.09.02-86.18.02-129.27.04v987.01c47.25-11.29,94.56-22.29,141.96-32.98.33-177.19.67-354.4,1.02-531.59-.25-23.06-4.8-45.59-9.3-68.11,74.74,185.28,152.31,369.35,233.15,552.03,42.76-8.49,85.56-16.74,128.42-24.75l3.24-588.73c.54-97.68,1.08-195.34,1.62-293.01-47.92.02-95.85.02-143.79.04Z"/>
  <path class="cls-1" d="m765.47,1408.17c85.97-1.79,171.93-3.45,257.92-4.95.27-35.23.54-70.48.81-105.71-135.18.02-270.36.04-405.52.08-.62,97.68-1.25,195.36-1.85,293.03-1.21,189.17-2.41,378.36-3.6,567.54,135.8-23.35,272-43.98,408.64-61.89.27-35.21.54-70.42.81-105.65-87.31,9.94-174.49,20.8-261.56,32.61.62-87.45,1.23-174.92,1.85-262.37,73.93-6.41,147.87-12.39,221.88-17.93.27-34.77.52-69.52.79-104.28-73.99,4.24-147.95,8.82-221.9,13.73.15-20.59.29-41.16.44-61.75.42-60.81.87-121.64,1.29-182.45Z"/>
  <path class="cls-1" d="m2101.39,1297.39c-.17,97.74-.35,195.49-.5,293.23-.06,32.78-.12,65.55-.17,98.33.27,17.55,4.49,35.06,9.4,51.81-26.85-50.02-53.68-100.07-80.42-150.15-52.1-97.56-103.96-195.28-155.35-293.21h-129.31c-.46,97.74-.94,195.47-1.41,293.21-.71,146.39-1.41,292.78-2.12,439.17,48.21-2.6,96.44-4.91,144.68-6.9.5-134.76.98-269.5,1.48-404.23-.12-9.4-1.37-18.78-3.24-28.05-1.66-8.19-3.79-16.26-6.07-24.19,4.2,8.07,8.4,16.14,12.6,24.19,74,142.21,148.78,284.04,223.79,425.75,43.4-.69,86.78-1.14,130.19-1.33.04-141.48.1-282.94.13-424.42.04-97.74.06-195.49.1-293.23h-143.79Z"/>
  <path class="cls-1" d="m2630.21,1393.16c54.28.27,108.56.6,162.84.96-.13-32.23-.29-64.47-.44-96.71-157.47,0-314.91-.02-472.38-.02.02,31.65.04,63.3.04,94.92,54.3.04,108.58.13,162.86.29.13,65.99.25,132,.39,198.01.29,142.17.58,284.35.85,426.52,49.33,1.08,98.62,2.48,147.93,4.22-.48-143.58-.94-287.16-1.43-430.74-.21-65.82-.44-131.64-.65-197.46Z"/>
  <path class="cls-1" d="m3861.87,1590.62c-22.29-98.1-44.88-196.15-67.76-294.13h-155.14c-22.36,98.1-44.96,196.15-67.82,294.13-38.48,165.08-77.68,329.99-117.6,494.73l.37.54c48.64,5.95,97.23,12.21,145.79,18.8,9.52-49.95,19.01-99.91,28.47-149.88,61.58,7.03,123.1,14.49,184.59,22.34,10.27,54.65,20.49,109.27,30.67,163.94,48.66,7.94,97.23,16.2,145.78,24.79-41.34-192-83.79-383.76-127.34-575.26Zm-214.93,261.87c16.87-87.26,33.61-174.55,50.22-261.87,6.55-34.31,13.04-68.59,19.53-102.9,6.82,34.31,13.62,68.59,20.42,102.9,18.2,92.17,36.25,184.34,54.13,276.56-48.08-5.1-96.18-10-144.29-14.7Z"/>
  <path class="cls-1" d="m4506.8,1347.24c-37.1-36.87-88.78-47.96-139.4-49.56-100.28-.02-200.56-.06-300.83-.08.54,97.68,1.06,195.34,1.6,293.01,1.08,196.74,2.16,393.5,3.22,590.25,99.76,18.72,199.21,38.91,298.37,60.54,45.86,8.67,98.27,12.21,137.69-17.66,39.56-30.01,49.46-77.97,51.04-125.05v-613.65c-1.73-51.45-14.18-100.55-51.68-137.8Zm-95.04,700.14c.77,54.67-39.49,74.56-89.2,63.97-35.02-6.49-70.06-12.85-105.11-19.07-.69-167.21-1.41-334.45-2.08-501.66-.25-58.63-.5-117.25-.73-175.88,36.54.96,73.06,1.95,109.6,2.95,50.85.15,86.81,29.93,86.45,82.21.06,30.24.12,60.48.17,90.72.29,152.25.6,304.51.91,456.76Z"/>
  <path class="cls-1" d="m1536.94,1145.2c-106.81,0-213.6.04-320.39.06-46.04-.52-89.43,31.26-88.22,109.93-.56,111.8-1.12,223.61-1.68,335.43-1.08,140.42-2.14,280.82-3.22,421.24-.13,51.31,41.3,68.07,87.3,61.75,107.04-11.67,214.21-21.67,321.56-30.03,44.71-2.56,90.57-23.21,90.38-74.06.71-126.3,1.43-252.6,2.16-378.9.42-114.01.85-228,1.27-342.02,2.27-78.34-46.11-103.15-89.16-103.4Zm-62.31,806.6c-67.74,4.97-135.43,10.46-203.1,16.53.92-125.92,1.85-251.81,2.79-377.71.46-98.41.94-196.78,1.43-295.17,67.51-1.37,135.03-2.6,202.54-3.74-.42,99.62-.87,199.27-1.29,298.91-.79,120.39-1.58,240.79-2.37,361.18Z"/>
  <path class="cls-1" d="m3370.59,2005.06c-1.04-138.15-2.08-276.29-3.12-414.44-.56-112.16-1.12-224.33-1.68-336.49.15-78.84-43.42-110.41-90.09-108.89-106.79,0-213.58-.04-320.39-.04-44.76-1.66-87.2,27.16-87.3,102.8.39,114.22.79,228.41,1.18,342.61.65,125.05,1.29,250.1,1.95,375.13.69,49.85,43.47,70.85,88.49,72.96,107.39,7.61,214.62,16.89,321.71,27.83,43.69,4.39,91.78-8.34,89.24-61.48Zm-351.34-57.73c-.73-118.9-1.46-237.81-2.2-356.71-.4-99.99-.81-199.96-1.21-299.91,67.51,1.02,135.03,2.16,202.54,3.45.46,98.83.92,197.65,1.41,296.46.87,124.03,1.75,248.04,2.66,372.07-67.69-5.68-135.41-10.79-203.2-15.35Z"/>
</svg>